HIERARCHY
ROOT Hips
{
	OFFSET	8.3386	89.6931	-13.3114
	CHANNELS 6 Xposition Yposition Zposition Zrotation Yrotation Xrotation
	JOINT Chest
	{
		OFFSET	0.0000	16.3830	0.0000
		CHANNELS 3 Zrotation Yrotation Xrotation
		JOINT LeftCollar
		{
			OFFSET	3.8100	32.7660	-3.8100
			CHANNELS 3 Zrotation Yrotation Xrotation
			JOINT LeftUpArm
			{
				OFFSET	14.5367	0.0000	3.8951
				CHANNELS 3 Zrotation Yrotation Xrotation
				JOINT LeftLowArm
				{
					OFFSET	30.2895	0.0000	0.0000
					CHANNELS 3 Zrotation Yrotation Xrotation
					JOINT LeftHand
					{
						OFFSET	27.2415	0.0000	0.0000
						CHANNELS 3 Zrotation Yrotation Xrotation
						End Site
						{
							OFFSET	20.3835	0.0000	0.0000
						}
					}
				}
			}
		}
		JOINT Neck
		{
			OFFSET	0.0000	32.7660	0.0000
			CHANNELS 3 Zrotation Yrotation Xrotation
			JOINT Head
			{
				OFFSET	0.0000	19.6215	0.0000
				CHANNELS 3 Zrotation Yrotation Xrotation
				End Site
				{
					OFFSET	0.0000	0.0000	10.1600
				}
			}
		}
		JOINT RightCollar
		{
			OFFSET	-3.8100	32.7660	-3.8100
			CHANNELS 3 Zrotation Yrotation Xrotation
			JOINT RightUpArm
			{
				OFFSET	-14.5367	0.0000	3.8951
				CHANNELS 3 Zrotation Yrotation Xrotation
				JOINT RightLowArm
				{
					OFFSET	-30.2895	0.0000	0.0000
					CHANNELS 3 Zrotation Yrotation Xrotation
					JOINT RightHand
					{
						OFFSET	-27.2415	0.0000	0.0000
						CHANNELS 3 Zrotation Yrotation Xrotation
						End Site
						{
							OFFSET	-20.3835	0.0000	0.0000
						}
					}
				}
			}
		}
	}
	JOINT LeftUpLeg
	{
		OFFSET	9.3345	0.0000	0.0000
		CHANNELS 3 Zrotation Yrotation Xrotation
		JOINT LeftLowLeg
		{
			OFFSET	0.0000	-45.5295	0.0000
			CHANNELS 3 Zrotation Yrotation Xrotation
			JOINT LeftFoot
			{
				OFFSET	0.0000	-44.1960	0.0000
				CHANNELS 3 Zrotation Yrotation Xrotation
				End Site
				{
					OFFSET	0.0000	0.0000	26.4795
				}
			}
		}
	}
	JOINT RightUpLeg
	{
		OFFSET	-9.3345	0.0000	0.0000
		CHANNELS 3 Zrotation Yrotation Xrotation
		JOINT RightLowLeg
		{
			OFFSET	0.0000	-45.5295	0.0000
			CHANNELS 3 Zrotation Yrotation Xrotation
			JOINT RightFoot
			{
				OFFSET	0.0000	-44.1960	0.0000
				CHANNELS 3 Zrotation Yrotation Xrotation
				End Site
				{
					OFFSET	0.0000	0.0000	26.4795
				}
			}
		}
	}
}
MOTION
Frames: 22
Frame Time: 0.0166666666667
8.3386	89.6931	-13.3114	-1.2923	0.8867	0.9350	2.0794	-10.3918	1.1520	-7.3508	-7.7292	0.7854	-57.4801	-22.8252	42.2676	40.2574	-35.0524	-20.7548	4.6052	-9.0047	-25.3618	-0.8204	2.1245	-1.8880	-0.8204	2.1245	-1.8880	7.5460	1.2966	-3.7486	57.7953	-16.6025	24.7340	-1.0286	3.8789	13.2214	-7.9091	5.8626	-9.2291	-0.9784	1.1408	-1.2734	1.6946	-0.8469	5.7018	1.6662	1.1142	-4.6660	-13.6011	4.4565	-29.5718	3.3273	-18.5703	24.9240	2.2187	0.1685	0.9105	
8.3386	89.7006	-13.3114	-1.2416	0.9281	1.0856	2.0687	-10.7746	0.9857	-7.2517	-7.7335	0.8758	-57.2238	-23.2915	42.0414	42.3964	-36.0932	-22.7210	5.2977	-10.4160	-25.5204	-0.7988	2.1567	-2.0394	-0.7988	2.1567	-2.0394	7.5718	1.1932	-3.8834	57.3499	-17.4601	24.2145	-1.0183	3.7908	12.9957	-7.8327	8.2304	-9.7042	-1.0492	0.9085	-0.9933	1.7543	-0.5230	5.5583	1.5505	0.9825	-4.8137	-13.4229	4.8788	-29.5550	3.8734	-19.1590	20.0213	2.5101	0.1547	-0.4034	
8.3564	89.6711	-12.7484	-1.0695	0.9687	1.2470	1.9417	-11.0994	0.7903	-7.1502	-7.7999	1.0052	-56.8942	-23.7582	41.6918	44.2527	-37.0924	-24.7493	4.6198	-9.7983	-24.9557	-0.7821	2.1802	-2.1526	-0.7821	2.1802	-2.1526	7.6229	1.0029	-4.0448	56.8353	-18.4057	23.6787	-1.0425	4.2819	13.4188	-7.7846	7.9833	-10.1643	-1.2096	0.5041	-0.4556	1.7081	-0.1303	5.2177	1.4971	0.9552	-5.0536	-13.3340	5.1053	-29.5041	4.2353	-19.2049	16.7859	2.7741	-0.0259	-1.1910	
8.4044	89.6113	-11.9270	-0.8352	1.0203	1.3380	1.7518	-11.5236	0.6614	-7.0859	-7.6994	1.1096	-56.5832	-24.2173	41.4220	46.1721	-38.0105	-26.8841	4.7605	-11.4808	-24.5192	-0.7764	2.2555	-2.2573	-0.7764	2.2555	-2.2573	7.6247	0.9382	-4.1469	56.5574	-18.8790	23.5662	-1.0897	4.4806	13.5708	-7.7245	7.5360	-10.9222	-1.4510	0.3102	-0.2710	1.7179	0.1088	5.3200	1.4077	0.8417	-5.2705	-13.0376	5.1802	-29.2811	4.6282	-18.8370	12.6368	3.2169	-0.3473	-1.2609	
8.4287	89.5383	-11.4216	-0.5403	1.0979	1.3870	1.4979	-11.8965	0.6130	-7.0291	-7.6912	1.2170	-56.2230	-24.5602	41.1070	46.9197	-38.3455	-27.9125	4.8164	-12.6106	-24.3829	-0.7769	2.3227	-2.3558	-0.7769	2.3227	-2.3558	7.5862	0.7383	-4.2990	56.3521	-19.2626	23.5736	-1.0877	3.3930	11.8813	-7.7764	8.7495	-10.0284	-1.8298	-0.1892	0.6520	1.8272	0.6962	4.8493	1.3056	0.6768	-5.6379	-12.5807	5.1493	-28.8309	4.3191	-18.4152	11.0549	4.1346	0.0044	-3.7260	
8.5048	89.4238	-10.2766	-0.4091	1.1368	1.3905	1.3951	-12.1832	0.6268	-6.9822	-7.7039	1.3452	-55.9203	-24.8508	40.7856	49.9315	-39.6201	-30.3700	3.9415	-13.0361	-24.2829	-0.7839	2.4130	-2.4118	-0.7839	2.4130	-2.4118	7.5447	0.6147	-4.4347	56.1501	-20.1166	22.9664	-1.2071	3.7631	11.9927	-7.7836	9.0965	-10.2689	-1.9953	-0.3320	1.2537	1.9696	1.0523	5.0911	1.1163	0.4223	-6.3133	-12.0972	5.1915	-28.4429	4.8134	-17.9852	5.4575	4.4167	0.2653	-2.1403	
8.4817	89.2993	-9.1509	-0.3356	1.0830	1.1124	1.3253	-12.3497	0.9359	-6.9936	-7.6501	1.4286	-55.6348	-25.1378	40.4484	51.8018	-40.5807	-31.5745	3.4418	-13.2746	-24.7556	-0.7923	2.4212	-2.5926	-0.7923	2.4212	-2.5926	7.4746	0.4888	-4.5738	56.0284	-20.5321	22.7419	-1.2353	3.8811	11.8103	-7.8244	9.4720	-9.8812	-2.0547	-0.2791	2.0137	2.1018	1.2890	5.4280	0.9479	0.2144	-6.9626	-11.7108	5.4733	-27.8058	4.7684	-17.2508	2.5048	4.6269	-0.1282	-0.9515	
8.3860	89.1810	-8.1504	-0.4233	0.9566	0.7257	1.3854	-12.3822	1.3495	-7.0082	-7.6984	1.5741	-55.3505	-25.3964	40.0583	52.9771	-41.2432	-32.2296	3.0302	-12.7262	-25.0953	-0.7747	2.4151	-2.8032	-0.7747	2.4151	-2.8032	7.4146	0.3343	-4.6882	55.9383	-20.8112	22.5586	-1.2112	4.0452	11.7299	-8.0038	11.9198	-12.0044	-1.8269	-0.0631	2.9469	2.0489	1.3869	5.7502	0.8131	0.0444	-7.4072	-11.2766	5.9773	-27.1898	4.6215	-16.4995	0.5729	4.7067	-0.8369	-0.1061	
8.2396	89.0682	-7.0617	-0.3428	0.9827	0.4926	1.5025	-12.5891	1.4785	-7.2791	-7.7083	1.7390	-55.0380	-25.5907	39.6468	53.8945	-41.9567	-32.6890	2.8705	-13.3867	-25.4874	-0.8442	2.4358	-2.9681	-0.8442	2.4358	-2.9681	7.1158	0.2017	-4.8048	55.9465	-20.9812	22.2736	-1.0080	5.0787	11.2818	-7.7958	11.4472	-11.2394	-1.7336	0.0279	3.6424	2.0214	1.4424	6.4322	0.6328	-0.1355	-8.1254	-11.0064	6.6255	-26.6921	4.2578	-16.0331	-0.9137	5.7162	1.0204	-3.1284	
8.0436	88.8823	-5.8186	-0.0954	1.1560	0.2524	1.3976	-12.8598	1.6840	-7.4298	-7.6492	1.8626	-54.8224	-25.8808	39.3456	54.2482	-42.5491	-32.9079	2.8981	-13.7737	-25.7097	-0.9222	2.4629	-3.0476	-0.9222	2.4629	-3.0476	6.9122	0.0795	-4.8674	56.1533	-20.6018	20.9873	-0.7168	5.6877	11.9158	-7.5683	10.7791	-10.4556	-1.7527	0.0609	4.3271	1.9178	1.3200	6.9329	0.5013	-0.2283	-8.8443	-11.0748	6.7314	-26.3409	4.0974	-15.7456	-1.4273	6.5592	2.1476	-4.6389	
7.8261	88.6815	-4.7288	0.1229	1.3254	0.0495	1.2925	-13.0690	1.9068	-7.5367	-7.5974	1.9106	-54.4380	-26.2314	38.9099	53.7868	-43.2980	-32.9696	3.0035	-13.8767	-25.4469	-0.9641	2.4758	-3.2083	-0.9641	2.4758	-3.2083	6.7803	0.0243	-4.8934	56.2941	-20.6295	20.5613	-0.6406	6.0293	12.2659	-7.4128	10.9514	-10.0228	-1.6568	0.1793	5.0790	1.7884	1.0991	7.8545	0.2149	-0.4222	-9.1757	-10.6697	7.3994	-26.0041	3.5042	-14.0863	-2.3898	6.9468	0.6505	-4.5320	
7.5300	88.3769	-3.1597	0.3136	1.5438	-0.2340	1.1810	-13.2830	2.2084	-7.6093	-7.5599	1.9416	-54.2596	-26.4195	38.6620	53.0670	-43.9436	-32.9353	3.4227	-13.7994	-25.0598	-1.0013	2.4876	-3.3046	-1.0013	2.4876	-3.3046	6.6922	-0.0176	-4.8933	56.3315	-20.5875	20.3657	-0.5954	6.1724	12.4741	-7.2342	11.2902	-9.4569	-1.6171	0.1828	5.7056	1.7183	0.9394	8.5702	-0.0061	-0.5996	-9.3715	-10.6257	7.8928	-25.7995	3.1714	-14.1698	-1.6098	6.9144	0.8196	-4.6994	
7.3041	88.1355	-2.0648	0.4325	1.7880	-0.5956	1.1333	-13.4825	2.5904	-7.6789	-7.5606	1.9284	-54.1712	-26.4775	38.5378	52.0685	-44.5430	-32.5601	2.7839	-13.8917	-24.1407	-1.0397	2.4953	-3.3890	-1.0397	2.4953	-3.3890	6.6266	-0.0563	-4.8974	56.5371	-20.4795	19.8593	-0.3874	6.7558	13.3269	-7.2030	11.0907	-8.9382	-1.5405	0.1362	6.3780	1.7361	0.8023	9.5827	-0.2545	-0.8155	-9.5821	-10.8381	8.4403	-25.6456	3.0509	-14.7517	-0.0001	6.7555	1.0406	-4.9615	
7.0756	87.8371	-0.7963	0.4970	2.0210	-0.9168	1.1309	-13.6327	2.9152	-7.7647	-7.6302	1.9108	-54.1867	-26.4618	38.5306	51.2661	-44.7916	-32.0248	2.2921	-13.4454	-23.8000	-1.0729	2.4974	-3.4436	-1.0729	2.4974	-3.4436	6.6262	-0.0840	-4.8910	56.7005	-20.2411	19.5887	-0.3981	6.8755	13.7301	-6.8601	11.5010	-7.9870	-1.4157	0.1682	7.2356	1.6565	0.5405	9.6527	-0.3763	-0.9350	-9.1490	-11.2246	9.3403	-25.6784	3.0384	-15.8523	2.0485	6.6139	1.1584	-3.9851	
6.9196	87.6581	0.1148	0.5389	2.2613	-1.1863	1.1900	-13.7268	3.1532	-7.7374	-7.6967	1.8301	-54.4691	-26.2266	38.6451	50.3116	-45.0823	-31.2702	1.7035	-12.7649	-23.4666	-1.1136	2.4919	-3.4779	-1.1136	2.4919	-3.4779	6.6381	-0.1154	-4.9200	56.7976	-20.0372	19.4975	-0.3873	6.9629	13.9434	-6.5859	11.8065	-7.3120	-1.2105	0.1469	8.0347	1.7179	0.2717	10.9845	-0.6624	-1.1567	-8.8492	-11.7284	10.0648	-25.3739	3.2640	-16.8914	2.9736	6.6359	1.2177	-0.6133	
6.6061	87.1865	1.9524	0.6004	2.5189	-1.3968	1.2642	-13.7932	3.2315	-7.8189	-7.8131	1.7618	-54.7469	-25.8333	38.8110	47.1860	-45.0870	-28.6927	2.0293	-12.6977	-23.2767	-1.1540	2.4941	-3.4542	-1.1540	2.4941	-3.4542	6.6273	-0.1415	-4.9154	56.7683	-20.0521	19.4260	-0.0136	8.2093	14.7661	-6.6304	10.6508	-7.6062	-1.0089	0.1416	8.6562	1.7701	-0.1193	12.5062	-0.9065	-1.2837	-8.8440	-11.8201	10.5563	-25.0495	3.4362	-17.7005	5.4652	5.6330	2.1039	-1.5863	
6.2758	86.6536	3.7388	0.6162	2.7276	-1.5624	1.3475	-13.8569	3.2738	-7.8913	-7.8071	1.6483	-55.0046	-25.4165	39.1470	44.6807	-44.7929	-26.5831	2.1209	-12.6024	-23.0504	-1.1636	2.5559	-3.4019	-1.1636	2.5559	-3.4019	6.6623	-0.0636	-4.9481	57.3238	-19.4235	19.9152	-0.1817	8.0285	14.4569	-6.2944	11.3912	-6.8961	-0.7703	0.1219	9.1483	1.7203	-0.5216	13.5298	-1.0664	-1.2713	-8.8273	-11.4110	10.6167	-24.2988	3.2670	-18.3000	5.6101	3.9808	3.0993	1.1549	
5.9904	86.2514	5.0183	0.5317	2.9818	-1.7568	1.5886	-13.9309	3.1993	-8.0532	-7.7499	1.6227	-55.2518	-25.1606	39.5568	41.8967	-44.3173	-24.2657	2.1325	-12.2972	-22.6457	-1.2331	2.5274	-3.2785	-1.2331	2.5274	-3.2785	6.6499	-0.0488	-4.7252	57.6551	-18.9344	20.2350	-0.0811	8.4194	14.3911	-6.2366	11.5930	-6.5518	-0.5812	-0.0682	9.4756	1.7240	-0.8197	15.1038	-1.0472	-1.3378	-7.2363	-10.7681	10.3105	-23.1215	3.5500	-17.5759	4.9995	2.4020	3.0956	5.5134	
5.8547	85.7544	6.3965	0.3538	3.0539	-1.1242	2.2556	-13.7568	2.2652	-8.3703	-7.8832	1.7241	-55.3825	-24.1654	39.6685	38.9387	-44.0389	-21.4466	3.1979	-12.6517	-22.6328	-1.2430	2.6217	-3.1674	-1.2430	2.6217	-3.1674	6.6732	0.0542	-4.3469	57.8142	-18.2755	20.3649	-0.0770	8.2699	14.0181	-6.2341	11.8914	-6.2844	-0.1000	-0.2605	9.1745	1.4511	-0.9649	16.7131	-1.0621	-1.2339	-5.0973	-9.4445	9.4527	-21.8369	3.4605	-14.8238	4.3204	1.5314	1.9131	7.7442	
5.5997	85.1377	8.0662	0.1791	2.8406	0.1373	2.9759	-13.3134	0.7202	-8.5842	-7.9847	1.7064	-55.4861	-23.5492	39.6194	35.5180	-43.5445	-18.1969	3.3151	-11.6732	-22.3683	-1.2795	2.6894	-3.0320	-1.2795	2.6894	-3.0320	6.6668	0.1310	-4.1366	58.1426	-17.4432	20.7698	0.2294	9.2617	14.1715	-6.1346	11.7041	-5.9584	0.1975	-0.0839	7.8752	1.3457	-1.1774	18.5099	-1.0975	-1.0988	-2.8172	-7.8716	8.4714	-21.8720	2.8899	-13.6073	4.4468	0.9529	2.3440	8.9635	
5.5997	84.6274	8.0662	0.1805	2.7653	1.0038	3.3906	-12.9901	-0.4067	-8.5990	-7.8665	1.3079	-55.7540	-22.2020	39.6709	32.0469	-43.3867	-14.7522	4.1757	-11.5898	-22.5750	-1.3297	2.7799	-2.9099	-1.3297	2.7799	-2.9099	6.5617	0.1467	-3.9641	58.5371	-16.8214	20.9958	0.1255	9.0484	13.9198	-5.9705	12.7773	-5.4073	0.7170	-0.2317	6.5258	0.8218	-1.1100	20.9694	-1.1045	-1.1119	-0.7414	-6.6872	7.7609	-22.0540	2.1283	-13.1257	5.0125	0.7038	2.9851	9.2558	
4.8448	85.0856	9.3756	0.4352	2.9020	1.1746	3.2797	-13.0122	-0.6764	-8.6712	-7.8617	1.2907	-55.7482	-21.1389	39.3960	28.9081	-43.0015	-11.6922	3.0027	-10.1108	-22.0089	-1.3419	2.9087	-2.8761	-1.3419	2.9087	-2.8761	6.4610	0.1426	-3.8380	58.7756	-16.5228	21.0172	0.5500	11.1404	14.7596	-5.9041	12.1501	-5.4065	0.9743	-0.6085	5.6635	0.3350	-0.8902	23.7218	-1.0861	-1.2604	1.2587	-5.7999	7.1735	-21.8798	1.2943	-12.2585	5.4061	0.7100	2.6394	11.7877	
